<?xml version="1.0" encoding="UTF-8" ?>
<svg version="1.1" width="100" height="64" xmlns="http://www.w3.org/2000/svg" shape-rendering="crispEdges">
<rect x="9" y="18" width="1" height="1" fill="#8A1F08" />
<rect x="10" y="18" width="1" height="1" fill="#8A1F08" />
<rect x="11" y="18" width="1" height="1" fill="#8A1F08" />
<rect x="12" y="18" width="1" height="1" fill="#8A1F08" />
<rect x="13" y="18" width="1" height="1" fill="#8A1F08" />
<rect x="14" y="18" width="1" height="1" fill="#8A1F08" />
<rect x="15" y="18" width="1" height="1" fill="#8A1F08" />
<rect x="8" y="19" width="1" height="1" fill="#8A1F08" />
<rect x="16" y="19" width="1" height="1" fill="#8A1F08" />
<rect x="17" y="19" width="1" height="1" fill="#8A1F08" />
<rect x="7" y="20" width="1" height="1" fill="#8A1F08" />
<rect x="14" y="20" width="1" height="1" fill="#9E260C" />
<rect x="15" y="20" width="1" height="1" fill="#9E260C" />
<rect x="16" y="20" width="1" height="1" fill="#9E260C" />
<rect x="17" y="20" width="1" height="1" fill="#9E260C" />
<rect x="18" y="20" width="1" height="1" fill="#9E260C" />
<rect x="19" y="20" width="1" height="1" fill="#9E260C" />
<rect x="20" y="20" width="1" height="1" fill="#9E260C" />
<rect x="6" y="21" width="1" height="1" fill="#8A1F08" />
<rect x="13" y="21" width="1" height="1" fill="#9E260C" />
<rect x="19" y="21" width="1" height="1" fill="#8A1F08" />
<rect x="21" y="21" width="1" height="1" fill="#9E260C" />
<rect x="22" y="21" width="1" height="1" fill="#9E260C" />
<rect x="23" y="21" width="1" height="1" fill="#9E260C" />
<rect x="6" y="22" width="1" height="1" fill="#8A1F08" />
<rect x="12" y="22" width="1" height="1" fill="#9E260C" />
<rect x="20" y="22" width="1" height="1" fill="#8A1F08" />
<rect x="24" y="22" width="1" height="1" fill="#9E260C" />
<rect x="6" y="23" width="1" height="1" fill="#8A1F08" />
<rect x="12" y="23" width="1" height="1" fill="#9E260C" />
<rect x="21" y="23" width="1" height="1" fill="#8A1F08" />
<rect x="25" y="23" width="1" height="1" fill="#9E260C" />
<rect x="26" y="23" width="1" height="1" fill="#9E260C" />
<rect x="6" y="24" width="1" height="1" fill="#8A1F08" />
<rect x="11" y="24" width="1" height="1" fill="#9E260C" />
<rect x="22" y="24" width="1" height="1" fill="#8A1F08" />
<rect x="23" y="24" width="1" height="1" fill="#8A1F08" />
<rect x="27" y="24" width="1" height="1" fill="#9E260C" />
<rect x="6" y="25" width="1" height="1" fill="#8A1F08" />
<rect x="11" y="25" width="1" height="1" fill="#9E260C" />
<rect x="24" y="25" width="1" height="1" fill="#8A1F08" />
<rect x="25" y="25" width="1" height="1" fill="#8A1F08" />
<rect x="26" y="25" width="1" height="1" fill="#8A1F08" />
<rect x="28" y="25" width="1" height="1" fill="#9E260C" />
<rect x="29" y="25" width="1" height="1" fill="#9E260C" />
<rect x="34" y="25" width="1" height="1" fill="#9E260C" />
<rect x="7" y="26" width="1" height="1" fill="#8A1F08" />
<rect x="10" y="26" width="1" height="1" fill="#9E260C" />
<rect x="30" y="26" width="1" height="1" fill="#9E260C" />
<rect x="31" y="26" width="1" height="1" fill="#9E260C" />
<rect x="32" y="26" width="1" height="1" fill="#9E260C" />
<rect x="33" y="26" width="1" height="1" fill="#9E260C" />
<rect x="8" y="27" width="1" height="1" fill="#8A1F08" />
<rect x="10" y="27" width="1" height="1" fill="#9E260C" />
<rect x="11" y="27" width="1" height="1" fill="#AC3232" />
<rect x="12" y="27" width="1" height="1" fill="#AC3232" />
<rect x="13" y="27" width="1" height="1" fill="#AC3232" />
<rect x="14" y="27" width="1" height="1" fill="#AC3232" />
<rect x="15" y="27" width="1" height="1" fill="#AC3232" />
<rect x="16" y="27" width="1" height="1" fill="#AC3232" />
<rect x="17" y="27" width="1" height="1" fill="#AC3232" />
<rect x="18" y="27" width="1" height="1" fill="#AC3232" />
<rect x="19" y="27" width="1" height="1" fill="#AC3232" />
<rect x="20" y="27" width="1" height="1" fill="#AC3232" />
<rect x="9" y="28" width="1" height="1" fill="#AC3232" />
<rect x="10" y="28" width="1" height="1" fill="#9E260C" />
<rect x="11" y="28" width="1" height="1" fill="#CC4E33" />
<rect x="12" y="28" width="1" height="1" fill="#CC4E33" />
<rect x="13" y="28" width="1" height="1" fill="#E25D41" />
<rect x="14" y="28" width="1" height="1" fill="#E25D41" />
<rect x="15" y="28" width="1" height="1" fill="#E25D41" />
<rect x="16" y="28" width="1" height="1" fill="#E25D41" />
<rect x="17" y="28" width="1" height="1" fill="#E25D41" />
<rect x="18" y="28" width="1" height="1" fill="#E25D41" />
<rect x="19" y="28" width="1" height="1" fill="#E25D41" />
<rect x="20" y="28" width="1" height="1" fill="#E25D41" />
<rect x="21" y="28" width="1" height="1" fill="#AC3232" />
<rect x="22" y="28" width="1" height="1" fill="#AC3232" />
<rect x="8" y="29" width="1" height="1" fill="#AC3232" />
<rect x="9" y="29" width="1" height="1" fill="#CC4E33" />
<rect x="10" y="29" width="1" height="1" fill="#CC4E33" />
<rect x="11" y="29" width="1" height="1" fill="#9E260C" />
<rect x="12" y="29" width="1" height="1" fill="#E25D41" />
<rect x="13" y="29" width="1" height="1" fill="#E25D41" />
<rect x="14" y="29" width="1" height="1" fill="#000000" />
<rect x="15" y="29" width="1" height="1" fill="#E25D41" />
<rect x="16" y="29" width="1" height="1" fill="#E25D41" />
<rect x="17" y="29" width="1" height="1" fill="#E25D41" />
<rect x="18" y="29" width="1" height="1" fill="#E25D41" />
<rect x="19" y="29" width="1" height="1" fill="#E25D41" />
<rect x="20" y="29" width="1" height="1" fill="#E25D41" />
<rect x="21" y="29" width="1" height="1" fill="#E25D41" />
<rect x="22" y="29" width="1" height="1" fill="#E25D41" />
<rect x="23" y="29" width="1" height="1" fill="#AC3232" />
<rect x="24" y="29" width="1" height="1" fill="#AC3232" />
<rect x="25" y="29" width="1" height="1" fill="#AC3232" />
<rect x="7" y="30" width="1" height="1" fill="#AC3232" />
<rect x="8" y="30" width="1" height="1" fill="#E25D41" />
<rect x="9" y="30" width="1" height="1" fill="#E25D41" />
<rect x="10" y="30" width="1" height="1" fill="#E25D41" />
<rect x="11" y="30" width="1" height="1" fill="#E25D41" />
<rect x="12" y="30" width="1" height="1" fill="#9E260C" />
<rect x="13" y="30" width="1" height="1" fill="#E25D41" />
<rect x="14" y="30" width="1" height="1" fill="#000000" />
<rect x="15" y="30" width="1" height="1" fill="#E25D41" />
<rect x="16" y="30" width="1" height="1" fill="#E25D41" />
<rect x="17" y="30" width="1" height="1" fill="#E25D41" />
<rect x="18" y="30" width="1" height="1" fill="#E25D41" />
<rect x="19" y="30" width="1" height="1" fill="#E25D41" />
<rect x="20" y="30" width="1" height="1" fill="#E25D41" />
<rect x="21" y="30" width="1" height="1" fill="#E25D41" />
<rect x="22" y="30" width="1" height="1" fill="#E25D41" />
<rect x="23" y="30" width="1" height="1" fill="#E25D41" />
<rect x="24" y="30" width="1" height="1" fill="#F28D64" />
<rect x="25" y="30" width="1" height="1" fill="#F28D64" />
<rect x="26" y="30" width="1" height="1" fill="#AC3232" />
<rect x="27" y="30" width="1" height="1" fill="#AC3232" />
<rect x="7" y="31" width="1" height="1" fill="#AC3232" />
<rect x="8" y="31" width="1" height="1" fill="#E25D41" />
<rect x="9" y="31" width="1" height="1" fill="#E25D41" />
<rect x="10" y="31" width="1" height="1" fill="#E25D41" />
<rect x="11" y="31" width="1" height="1" fill="#E25D41" />
<rect x="12" y="31" width="1" height="1" fill="#E25D41" />
<rect x="13" y="31" width="1" height="1" fill="#E25D41" />
<rect x="14" y="31" width="1" height="1" fill="#E25D41" />
<rect x="15" y="31" width="1" height="1" fill="#E25D41" />
<rect x="16" y="31" width="1" height="1" fill="#E25D41" />
<rect x="17" y="31" width="1" height="1" fill="#E25D41" />
<rect x="18" y="31" width="1" height="1" fill="#E25D41" />
<rect x="19" y="31" width="1" height="1" fill="#E25D41" />
<rect x="20" y="31" width="1" height="1" fill="#E25D41" />
<rect x="21" y="31" width="1" height="1" fill="#E25D41" />
<rect x="22" y="31" width="1" height="1" fill="#E25D41" />
<rect x="23" y="31" width="1" height="1" fill="#F28D64" />
<rect x="24" y="31" width="1" height="1" fill="#F28D64" />
<rect x="25" y="31" width="1" height="1" fill="#F28D64" />
<rect x="26" y="31" width="1" height="1" fill="#F28D64" />
<rect x="27" y="31" width="1" height="1" fill="#AC3232" />
<rect x="28" y="31" width="1" height="1" fill="#AC3232" />
<rect x="29" y="31" width="1" height="1" fill="#AC3232" />
<rect x="30" y="31" width="1" height="1" fill="#AC3232" />
<rect x="8" y="32" width="1" height="1" fill="#AC3232" />
<rect x="9" y="32" width="1" height="1" fill="#E25D41" />
<rect x="10" y="32" width="1" height="1" fill="#E25D41" />
<rect x="11" y="32" width="1" height="1" fill="#E25D41" />
<rect x="12" y="32" width="1" height="1" fill="#E25D41" />
<rect x="13" y="32" width="1" height="1" fill="#E25D41" />
<rect x="14" y="32" width="1" height="1" fill="#E25D41" />
<rect x="15" y="32" width="1" height="1" fill="#E25D41" />
<rect x="16" y="32" width="1" height="1" fill="#E25D41" />
<rect x="17" y="32" width="1" height="1" fill="#E25D41" />
<rect x="18" y="32" width="1" height="1" fill="#E25D41" />
<rect x="19" y="32" width="1" height="1" fill="#E25D41" />
<rect x="20" y="32" width="1" height="1" fill="#E25D41" />
<rect x="21" y="32" width="1" height="1" fill="#E25D41" />
<rect x="22" y="32" width="1" height="1" fill="#F28D64" />
<rect x="23" y="32" width="1" height="1" fill="#F28D64" />
<rect x="24" y="32" width="1" height="1" fill="#F28D64" />
<rect x="25" y="32" width="1" height="1" fill="#F28D64" />
<rect x="26" y="32" width="1" height="1" fill="#F28D64" />
<rect x="27" y="32" width="1" height="1" fill="#F28D64" />
<rect x="28" y="32" width="1" height="1" fill="#AC3232" />
<rect x="29" y="32" width="1" height="1" fill="#F28D64" />
<rect x="30" y="32" width="1" height="1" fill="#F28D64" />
<rect x="31" y="32" width="1" height="1" fill="#AC3232" />
<rect x="9" y="33" width="1" height="1" fill="#AC3232" />
<rect x="10" y="33" width="1" height="1" fill="#AC3232" />
<rect x="11" y="33" width="1" height="1" fill="#E25D41" />
<rect x="12" y="33" width="1" height="1" fill="#E25D41" />
<rect x="13" y="33" width="1" height="1" fill="#E25D41" />
<rect x="14" y="33" width="1" height="1" fill="#E25D41" />
<rect x="15" y="33" width="1" height="1" fill="#E25D41" />
<rect x="16" y="33" width="1" height="1" fill="#E25D41" />
<rect x="17" y="33" width="1" height="1" fill="#E25D41" />
<rect x="18" y="33" width="1" height="1" fill="#E25D41" />
<rect x="19" y="33" width="1" height="1" fill="#E25D41" />
<rect x="20" y="33" width="1" height="1" fill="#E25D41" />
<rect x="21" y="33" width="1" height="1" fill="#E25D41" />
<rect x="22" y="33" width="1" height="1" fill="#E25D41" />
<rect x="23" y="33" width="1" height="1" fill="#F28D64" />
<rect x="24" y="33" width="1" height="1" fill="#F28D64" />
<rect x="25" y="33" width="1" height="1" fill="#F28D64" />
<rect x="26" y="33" width="1" height="1" fill="#F28D64" />
<rect x="27" y="33" width="1" height="1" fill="#AC3232" />
<rect x="28" y="33" width="1" height="1" fill="#F28D64" />
<rect x="29" y="33" width="1" height="1" fill="#F28D64" />
<rect x="30" y="33" width="1" height="1" fill="#F28D64" />
<rect x="31" y="33" width="1" height="1" fill="#AC3232" />
<rect x="32" y="33" width="1" height="1" fill="#AC3232" />
<rect x="33" y="33" width="1" height="1" fill="#AC3232" />
<rect x="34" y="33" width="1" height="1" fill="#AC3232" />
<rect x="35" y="33" width="1" height="1" fill="#AC3232" />
<rect x="36" y="33" width="1" height="1" fill="#AC3232" />
<rect x="37" y="33" width="1" height="1" fill="#AC3232" />
<rect x="38" y="33" width="1" height="1" fill="#AC3232" />
<rect x="39" y="33" width="1" height="1" fill="#AC3232" />
<rect x="40" y="33" width="1" height="1" fill="#AC3232" />
<rect x="41" y="33" width="1" height="1" fill="#AC3232" />
<rect x="42" y="33" width="1" height="1" fill="#AC3232" />
<rect x="43" y="33" width="1" height="1" fill="#AC3232" />
<rect x="11" y="34" width="1" height="1" fill="#AC3232" />
<rect x="12" y="34" width="1" height="1" fill="#BA5B47" />
<rect x="13" y="34" width="1" height="1" fill="#BA5B47" />
<rect x="14" y="34" width="1" height="1" fill="#BA5B47" />
<rect x="15" y="34" width="1" height="1" fill="#BA5B47" />
<rect x="16" y="34" width="1" height="1" fill="#BA5B47" />
<rect x="17" y="34" width="1" height="1" fill="#E25D41" />
<rect x="18" y="34" width="1" height="1" fill="#E25D41" />
<rect x="19" y="34" width="1" height="1" fill="#E25D41" />
<rect x="20" y="34" width="1" height="1" fill="#E25D41" />
<rect x="21" y="34" width="1" height="1" fill="#E25D41" />
<rect x="22" y="34" width="1" height="1" fill="#E25D41" />
<rect x="23" y="34" width="1" height="1" fill="#F28D64" />
<rect x="24" y="34" width="1" height="1" fill="#F28D64" />
<rect x="25" y="34" width="1" height="1" fill="#F28D64" />
<rect x="26" y="34" width="1" height="1" fill="#AC3232" />
<rect x="27" y="34" width="1" height="1" fill="#E25D41" />
<rect x="28" y="34" width="1" height="1" fill="#F28D64" />
<rect x="29" y="34" width="1" height="1" fill="#F28D64" />
<rect x="30" y="34" width="1" height="1" fill="#F28D64" />
<rect x="31" y="34" width="1" height="1" fill="#AC3232" />
<rect x="32" y="34" width="1" height="1" fill="#E25D41" />
<rect x="33" y="34" width="1" height="1" fill="#E25D41" />
<rect x="34" y="34" width="1" height="1" fill="#F28D64" />
<rect x="35" y="34" width="1" height="1" fill="#F28D64" />
<rect x="36" y="34" width="1" height="1" fill="#F28D64" />
<rect x="37" y="34" width="1" height="1" fill="#AC3232" />
<rect x="38" y="34" width="1" height="1" fill="#E25D41" />
<rect x="39" y="34" width="1" height="1" fill="#F28D64" />
<rect x="40" y="34" width="1" height="1" fill="#F28D64" />
<rect x="41" y="34" width="1" height="1" fill="#F28D64" />
<rect x="42" y="34" width="1" height="1" fill="#AC3232" />
<rect x="43" y="34" width="1" height="1" fill="#E25D41" />
<rect x="44" y="34" width="1" height="1" fill="#AC3232" />
<rect x="45" y="34" width="1" height="1" fill="#AC3232" />
<rect x="17" y="35" width="1" height="1" fill="#CC4E33" />
<rect x="18" y="35" width="1" height="1" fill="#BA5B47" />
<rect x="19" y="35" width="1" height="1" fill="#E25D41" />
<rect x="20" y="35" width="1" height="1" fill="#E25D41" />
<rect x="21" y="35" width="1" height="1" fill="#E25D41" />
<rect x="22" y="35" width="1" height="1" fill="#E25D41" />
<rect x="23" y="35" width="1" height="1" fill="#E25D41" />
<rect x="24" y="35" width="1" height="1" fill="#E25D41" />
<rect x="25" y="35" width="1" height="1" fill="#BA5B47" />
<rect x="26" y="35" width="1" height="1" fill="#E25D41" />
<rect x="27" y="35" width="1" height="1" fill="#F28D64" />
<rect x="28" y="35" width="1" height="1" fill="#F28D64" />
<rect x="29" y="35" width="1" height="1" fill="#F28D64" />
<rect x="30" y="35" width="1" height="1" fill="#AC3232" />
<rect x="31" y="35" width="1" height="1" fill="#AC3232" />
<rect x="32" y="35" width="1" height="1" fill="#E25D41" />
<rect x="33" y="35" width="1" height="1" fill="#F28D64" />
<rect x="34" y="35" width="1" height="1" fill="#F28D64" />
<rect x="35" y="35" width="1" height="1" fill="#F28D64" />
<rect x="36" y="35" width="1" height="1" fill="#AC3232" />
<rect x="37" y="35" width="1" height="1" fill="#E25D41" />
<rect x="38" y="35" width="1" height="1" fill="#E25D41" />
<rect x="39" y="35" width="1" height="1" fill="#F28D64" />
<rect x="40" y="35" width="1" height="1" fill="#F28D64" />
<rect x="41" y="35" width="1" height="1" fill="#F28D64" />
<rect x="42" y="35" width="1" height="1" fill="#AC3232" />
<rect x="43" y="35" width="1" height="1" fill="#E25D41" />
<rect x="44" y="35" width="1" height="1" fill="#E25D41" />
<rect x="45" y="35" width="1" height="1" fill="#E25D41" />
<rect x="46" y="35" width="1" height="1" fill="#AC3232" />
<rect x="14" y="36" width="1" height="1" fill="#8A1F08" />
<rect x="15" y="36" width="1" height="1" fill="#8A1F08" />
<rect x="16" y="36" width="1" height="1" fill="#8A1F08" />
<rect x="17" y="36" width="1" height="1" fill="#8A1F08" />
<rect x="19" y="36" width="1" height="1" fill="#BA5B47" />
<rect x="20" y="36" width="1" height="1" fill="#E25D41" />
<rect x="21" y="36" width="1" height="1" fill="#E25D41" />
<rect x="22" y="36" width="1" height="1" fill="#E25D41" />
<rect x="23" y="36" width="1" height="1" fill="#E25D41" />
<rect x="24" y="36" width="1" height="1" fill="#BA5B47" />
<rect x="25" y="36" width="1" height="1" fill="#E25D41" />
<rect x="26" y="36" width="1" height="1" fill="#E25D41" />
<rect x="27" y="36" width="1" height="1" fill="#E25D41" />
<rect x="28" y="36" width="1" height="1" fill="#F28D64" />
<rect x="29" y="36" width="1" height="1" fill="#BA5B47" />
<rect x="30" y="36" width="1" height="1" fill="#BA5B47" />
<rect x="31" y="36" width="1" height="1" fill="#E25D41" />
<rect x="32" y="36" width="1" height="1" fill="#E25D41" />
<rect x="33" y="36" width="1" height="1" fill="#F28D64" />
<rect x="34" y="36" width="1" height="1" fill="#F28D64" />
<rect x="35" y="36" width="1" height="1" fill="#F28D64" />
<rect x="36" y="36" width="1" height="1" fill="#AC3232" />
<rect x="37" y="36" width="1" height="1" fill="#E25D41" />
<rect x="38" y="36" width="1" height="1" fill="#F28D64" />
<rect x="39" y="36" width="1" height="1" fill="#F28D64" />
<rect x="40" y="36" width="1" height="1" fill="#F28D64" />
<rect x="41" y="36" width="1" height="1" fill="#AC3232" />
<rect x="42" y="36" width="1" height="1" fill="#E25D41" />
<rect x="43" y="36" width="1" height="1" fill="#E25D41" />
<rect x="44" y="36" width="1" height="1" fill="#E25D41" />
<rect x="45" y="36" width="1" height="1" fill="#E25D41" />
<rect x="46" y="36" width="1" height="1" fill="#E25D41" />
<rect x="47" y="36" width="1" height="1" fill="#AC3232" />
<rect x="12" y="37" width="1" height="1" fill="#8A1F08" />
<rect x="13" y="37" width="1" height="1" fill="#8A1F08" />
<rect x="14" y="37" width="1" height="1" fill="#8A1F08" />
<rect x="18" y="37" width="1" height="1" fill="#9E260C" />
<rect x="19" y="37" width="1" height="1" fill="#9E260C" />
<rect x="20" y="37" width="1" height="1" fill="#CC4E33" />
<rect x="21" y="37" width="1" height="1" fill="#CC4E33" />
<rect x="22" y="37" width="1" height="1" fill="#CC4E33" />
<rect x="23" y="37" width="1" height="1" fill="#BA5B47" />
<rect x="24" y="37" width="1" height="1" fill="#E25D41" />
<rect x="25" y="37" width="1" height="1" fill="#E25D41" />
<rect x="26" y="37" width="1" height="1" fill="#E25D41" />
<rect x="27" y="37" width="1" height="1" fill="#E25D41" />
<rect x="28" y="37" width="1" height="1" fill="#BA5B47" />
<rect x="29" y="37" width="1" height="1" fill="#E25D41" />
<rect x="30" y="37" width="1" height="1" fill="#E25D41" />
<rect x="31" y="37" width="1" height="1" fill="#E25D41" />
<rect x="32" y="37" width="1" height="1" fill="#E25D41" />
<rect x="33" y="37" width="1" height="1" fill="#F28D64" />
<rect x="34" y="37" width="1" height="1" fill="#F28D64" />
<rect x="35" y="37" width="1" height="1" fill="#E25D41" />
<rect x="36" y="37" width="1" height="1" fill="#BA5B47" />
<rect x="37" y="37" width="1" height="1" fill="#E25D41" />
<rect x="38" y="37" width="1" height="1" fill="#E25D41" />
<rect x="39" y="37" width="1" height="1" fill="#F28D64" />
<rect x="40" y="37" width="1" height="1" fill="#F28D64" />
<rect x="41" y="37" width="1" height="1" fill="#BA5B47" />
<rect x="42" y="37" width="1" height="1" fill="#E25D41" />
<rect x="43" y="37" width="1" height="1" fill="#E25D41" />
<rect x="44" y="37" width="1" height="1" fill="#E25D41" />
<rect x="45" y="37" width="1" height="1" fill="#E25D41" />
<rect x="46" y="37" width="1" height="1" fill="#E25D41" />
<rect x="47" y="37" width="1" height="1" fill="#E25D41" />
<rect x="48" y="37" width="1" height="1" fill="#AC3232" />
<rect x="11" y="38" width="1" height="1" fill="#8A1F08" />
<rect x="12" y="38" width="1" height="1" fill="#8A1F08" />
<rect x="17" y="38" width="1" height="1" fill="#9E260C" />
<rect x="18" y="38" width="1" height="1" fill="#9E260C" />
<rect x="24" y="38" width="1" height="1" fill="#BA5B47" />
<rect x="25" y="38" width="1" height="1" fill="#BA5B47" />
<rect x="26" y="38" width="1" height="1" fill="#E25D41" />
<rect x="27" y="38" width="1" height="1" fill="#BA5B47" />
<rect x="28" y="38" width="1" height="1" fill="#E25D41" />
<rect x="29" y="38" width="1" height="1" fill="#E25D41" />
<rect x="30" y="38" width="1" height="1" fill="#E25D41" />
<rect x="31" y="38" width="1" height="1" fill="#E25D41" />
<rect x="32" y="38" width="1" height="1" fill="#E25D41" />
<rect x="33" y="38" width="1" height="1" fill="#E25D41" />
<rect x="34" y="38" width="1" height="1" fill="#E25D41" />
<rect x="35" y="38" width="1" height="1" fill="#BA5B47" />
<rect x="36" y="38" width="1" height="1" fill="#E25D41" />
<rect x="37" y="38" width="1" height="1" fill="#E25D41" />
<rect x="38" y="38" width="1" height="1" fill="#E25D41" />
<rect x="39" y="38" width="1" height="1" fill="#E25D41" />
<rect x="40" y="38" width="1" height="1" fill="#BA5B47" />
<rect x="41" y="38" width="1" height="1" fill="#E25D41" />
<rect x="42" y="38" width="1" height="1" fill="#E25D41" />
<rect x="43" y="38" width="1" height="1" fill="#E25D41" />
<rect x="44" y="38" width="1" height="1" fill="#E25D41" />
<rect x="45" y="38" width="1" height="1" fill="#E25D41" />
<rect x="46" y="38" width="1" height="1" fill="#E25D41" />
<rect x="47" y="38" width="1" height="1" fill="#E25D41" />
<rect x="48" y="38" width="1" height="1" fill="#E25D41" />
<rect x="49" y="38" width="1" height="1" fill="#AC3232" />
<rect x="11" y="39" width="1" height="1" fill="#8A1F08" />
<rect x="16" y="39" width="1" height="1" fill="#9E260C" />
<rect x="17" y="39" width="1" height="1" fill="#9E260C" />
<rect x="24" y="39" width="1" height="1" fill="#B42607" />
<rect x="25" y="39" width="1" height="1" fill="#CC4E33" />
<rect x="26" y="39" width="1" height="1" fill="#CC4E33" />
<rect x="27" y="39" width="1" height="1" fill="#BA5B47" />
<rect x="28" y="39" width="1" height="1" fill="#E25D41" />
<rect x="29" y="39" width="1" height="1" fill="#E25D41" />
<rect x="30" y="39" width="1" height="1" fill="#E25D41" />
<rect x="31" y="39" width="1" height="1" fill="#E25D41" />
<rect x="32" y="39" width="1" height="1" fill="#E25D41" />
<rect x="33" y="39" width="1" height="1" fill="#E25D41" />
<rect x="34" y="39" width="1" height="1" fill="#BA5B47" />
<rect x="35" y="39" width="1" height="1" fill="#CC4E33" />
<rect x="36" y="39" width="1" height="1" fill="#CC4E33" />
<rect x="37" y="39" width="1" height="1" fill="#CC4E33" />
<rect x="38" y="39" width="1" height="1" fill="#CC4E33" />
<rect x="39" y="39" width="1" height="1" fill="#CC4E33" />
<rect x="40" y="39" width="1" height="1" fill="#CC4E33" />
<rect x="41" y="39" width="1" height="1" fill="#CC4E33" />
<rect x="42" y="39" width="1" height="1" fill="#CC4E33" />
<rect x="43" y="39" width="1" height="1" fill="#CC4E33" />
<rect x="44" y="39" width="1" height="1" fill="#B42607" />
<rect x="45" y="39" width="1" height="1" fill="#9E260C" />
<rect x="46" y="39" width="1" height="1" fill="#E25D41" />
<rect x="47" y="39" width="1" height="1" fill="#E25D41" />
<rect x="48" y="39" width="1" height="1" fill="#E25D41" />
<rect x="49" y="39" width="1" height="1" fill="#E25D41" />
<rect x="50" y="39" width="1" height="1" fill="#AC3232" />
<rect x="11" y="40" width="1" height="1" fill="#8A1F08" />
<rect x="16" y="40" width="1" height="1" fill="#9E260C" />
<rect x="23" y="40" width="1" height="1" fill="#9E260C" />
<rect x="24" y="40" width="1" height="1" fill="#9E260C" />
<rect x="28" y="40" width="1" height="1" fill="#B42607" />
<rect x="29" y="40" width="1" height="1" fill="#CC4E33" />
<rect x="30" y="40" width="1" height="1" fill="#CC4E33" />
<rect x="31" y="40" width="1" height="1" fill="#CC4E33" />
<rect x="32" y="40" width="1" height="1" fill="#CC4E33" />
<rect x="33" y="40" width="1" height="1" fill="#B42607" />
<rect x="36" y="40" width="1" height="1" fill="#9E260C" />
<rect x="40" y="40" width="1" height="1" fill="#9E260C" />
<rect x="46" y="40" width="1" height="1" fill="#9E260C" />
<rect x="47" y="40" width="1" height="1" fill="#9E260C" />
<rect x="48" y="40" width="1" height="1" fill="#E25D41" />
<rect x="49" y="40" width="1" height="1" fill="#E25D41" />
<rect x="50" y="40" width="1" height="1" fill="#E25D41" />
<rect x="51" y="40" width="1" height="1" fill="#AC3232" />
<rect x="12" y="41" width="1" height="1" fill="#8A1F08" />
<rect x="16" y="41" width="1" height="1" fill="#9E260C" />
<rect x="23" y="41" width="1" height="1" fill="#9E260C" />
<rect x="29" y="41" width="1" height="1" fill="#9E260C" />
<rect x="33" y="41" width="1" height="1" fill="#9E260C" />
<rect x="37" y="41" width="1" height="1" fill="#9E260C" />
<rect x="41" y="41" width="1" height="1" fill="#9E260C" />
<rect x="48" y="41" width="1" height="1" fill="#9E260C" />
<rect x="49" y="41" width="1" height="1" fill="#9E260C" />
<rect x="50" y="41" width="1" height="1" fill="#E25D41" />
<rect x="51" y="41" width="1" height="1" fill="#AC3232" />
<rect x="12" y="42" width="1" height="1" fill="#8A1F08" />
<rect x="16" y="42" width="1" height="1" fill="#9E260C" />
<rect x="23" y="42" width="1" height="1" fill="#9E260C" />
<rect x="29" y="42" width="1" height="1" fill="#9E260C" />
<rect x="34" y="42" width="1" height="1" fill="#9E260C" />
<rect x="38" y="42" width="1" height="1" fill="#9E260C" />
<rect x="50" y="42" width="1" height="1" fill="#9E260C" />
<rect x="51" y="42" width="1" height="1" fill="#E25D41" />
<rect x="52" y="42" width="1" height="1" fill="#AC3232" />
<rect x="53" y="42" width="1" height="1" fill="#AC3232" />
<rect x="16" y="43" width="1" height="1" fill="#9E260C" />
<rect x="17" y="43" width="1" height="1" fill="#9E260C" />
<rect x="24" y="43" width="1" height="1" fill="#9E260C" />
<rect x="30" y="43" width="1" height="1" fill="#9E260C" />
<rect x="35" y="43" width="1" height="1" fill="#9E260C" />
<rect x="50" y="43" width="1" height="1" fill="#9E260C" />
<rect x="51" y="43" width="1" height="1" fill="#E25D41" />
<rect x="52" y="43" width="1" height="1" fill="#AC3232" />
<rect x="53" y="43" width="1" height="1" fill="#BA5B47" />
<rect x="54" y="43" width="1" height="1" fill="#AC3232" />
<rect x="18" y="44" width="1" height="1" fill="#9E260C" />
<rect x="50" y="44" width="1" height="1" fill="#9E260C" />
<rect x="51" y="44" width="1" height="1" fill="#E25D41" />
<rect x="52" y="44" width="1" height="1" fill="#E25D41" />
<rect x="53" y="44" width="1" height="1" fill="#AC3232" />
<rect x="54" y="44" width="1" height="1" fill="#AC3232" />
<rect x="55" y="44" width="1" height="1" fill="#AC3232" />
<rect x="50" y="45" width="1" height="1" fill="#9E260C" />
<rect x="51" y="45" width="1" height="1" fill="#E25D41" />
<rect x="52" y="45" width="1" height="1" fill="#E25D41" />
<rect x="53" y="45" width="1" height="1" fill="#AC3232" />
<rect x="50" y="46" width="1" height="1" fill="#9E260C" />
<rect x="51" y="46" width="1" height="1" fill="#E25D41" />
<rect x="52" y="46" width="1" height="1" fill="#E25D41" />
<rect x="53" y="46" width="1" height="1" fill="#AC3232" />
<rect x="51" y="47" width="1" height="1" fill="#9E260C" />
<rect x="52" y="47" width="1" height="1" fill="#E25D41" />
<rect x="53" y="47" width="1" height="1" fill="#AC3232" />
<rect x="51" y="48" width="1" height="1" fill="#9E260C" />
<rect x="52" y="48" width="1" height="1" fill="#E25D41" />
<rect x="53" y="48" width="1" height="1" fill="#AC3232" />
<rect x="51" y="49" width="1" height="1" fill="#9E260C" />
<rect x="52" y="49" width="1" height="1" fill="#E25D41" />
<rect x="53" y="49" width="1" height="1" fill="#AC3232" />
<rect x="52" y="50" width="1" height="1" fill="#AC3232" />
</svg>